HIERARCHY
ROOT Hips
{
 OFFSET 0.000000 0.000000 0.000000
 CHANNELS 6 Xposition Yposition Zposition Yrotation Xrotation Zrotation
 JOINT Chest
 {
  OFFSET 0.000000 10.080317 -0.001081
  CHANNELS 3 Yrotation Xrotation Zrotation
  JOINT Chest2
  {
   OFFSET 0.000000 11.096852 0.001963
   CHANNELS 3 Yrotation Xrotation Zrotation
   JOINT Chest3
   {
    OFFSET 0.000000 10.026525 0.000000
    CHANNELS 3 Yrotation Xrotation Zrotation
    JOINT Chest4
    {
     OFFSET 0.000000 10.026525 0.000000
     CHANNELS 3 Yrotation Xrotation Zrotation
     JOINT Neck
     {
      OFFSET 0.000000 14.108171 0.000000
      CHANNELS 3 Yrotation Xrotation Zrotation
      JOINT Head
      {
       OFFSET 0.000000 9.333493 0.004668
       CHANNELS 3 Yrotation Xrotation Zrotation
       End Site
       {
        OFFSET 0.000000 17.851786 0.002438
       }
      }
     }
     JOINT RightCollar
     {
      OFFSET -3.071622 7.873185 0.000000
      CHANNELS 3 Yrotation Xrotation Zrotation
      JOINT RightShoulder
      {
       OFFSET -14.378659 0.000000 0.000000
       CHANNELS 3 Yrotation Xrotation Zrotation
       JOINT RightElbow
       {
        OFFSET -30.778728 0.000000 0.000000
        CHANNELS 3 Yrotation Xrotation Zrotation
        JOINT RightWrist
        {
         OFFSET -25.164217 0.000000 0.000000
         CHANNELS 3 Yrotation Xrotation Zrotation
         End Site
         {
          OFFSET -18.796788 0.000000 0.000000
         }
        }
       }
      }
     }
     JOINT LeftCollar
     {
      OFFSET 3.071622 7.873185 0.000000
      CHANNELS 3 Yrotation Xrotation Zrotation
      JOINT LeftShoulder
      {
       OFFSET 14.378659 0.000000 0.000000
       CHANNELS 3 Yrotation Xrotation Zrotation
       JOINT LeftElbow
       {
        OFFSET 30.778728 0.000000 0.000000
        CHANNELS 3 Yrotation Xrotation Zrotation
        JOINT LeftWrist
        {
         OFFSET 25.164217 0.000000 0.000000
         CHANNELS 3 Yrotation Xrotation Zrotation
         End Site
         {
          OFFSET 18.796788 0.000000 0.000000
         }
        }
       }
      }
     }
    }
   }
  }
 }
 JOINT RightHip
 {
  OFFSET -8.194923 0.005295 0.000540
  CHANNELS 3 Yrotation Xrotation Zrotation
  JOINT RightKnee
  {
   OFFSET 0.000000 -42.473320 -0.000511
   CHANNELS 3 Yrotation Xrotation Zrotation
   JOINT RightAnkle
   {
    OFFSET 0.000000 -41.474259 -0.000865
    CHANNELS 3 Yrotation Xrotation Zrotation
    JOINT RightToe
    {
     OFFSET 0.000000 -7.354994 16.712725
     CHANNELS 3 Yrotation Xrotation Zrotation
     End Site
     {
      OFFSET 0.000000 -1.553903 6.764158
     }
    }
   }
  }
 }
 JOINT LeftHip
 {
  OFFSET 8.194923 0.005295 0.000540
  CHANNELS 3 Yrotation Xrotation Zrotation
  JOINT LeftKnee
  {
   OFFSET 0.000000 -42.473320 -0.000511
   CHANNELS 3 Yrotation Xrotation Zrotation
   JOINT LeftAnkle
   {
    OFFSET 0.000000 -41.474259 -0.000865
    CHANNELS 3 Yrotation Xrotation Zrotation
    JOINT LeftToe
    {
     OFFSET 0.000000 -7.354994 16.712725
     CHANNELS 3 Yrotation Xrotation Zrotation
     End Site
     {
      OFFSET 0.000000 -1.553903 6.764158
     }
    }
   }
  }
 }
}
MOTION
Frames: 7
Frame Time: 0.016667
0.000000 91.111157 0.000000 0.000000 -5.826342 0.000000 0.000000 11.116423 0.000000 0.000000 -5.290081 0.000000 0.000000 0.000000 0.000000 0.000000 0.000000 0.000000 0.000000 12.665069 0.000000 0.000000 0.575450 0.000000 0.000000 0.000000 0.000000 0.000000 0.000000 0.000000 2.337306 0.000000 0.000000 -2.337306 0.000000 0.000000 0.000000 0.000000 0.000000 0.000000 0.000000 0.000000 -2.337306 0.000000 0.000000 2.337306 0.000000 0.000000 0.000000 8.578828 0.000000 0.000000 1.905768 0.000000 0.000000 -4.658254 0.000000 0.000000 0.000000 0.000000 0.000000 8.578828 0.000000 0.000000 1.905768 0.000000 0.000000 -4.658254 0.000000 0.000000 0.000000 0.000000
-61.012630 92.778756 93.623929 -0.025758 -5.099634 0.143193 -0.028394 3.419274 -0.564280 -0.010000 1.518546 -0.251506 -0.010000 1.518546 -0.251506 -0.006874 1.138914 -0.188594 0.271479 19.786834 2.006153 -0.125331 0.576349 3.577426 -4.554134 -2.979604 8.976333 2.960351 -2.391634 70.115059 17.665206 23.728867 11.906032 -3.559953 5.443483 -8.831953 -3.557911 -2.253251 -4.193991 -2.354379 -10.643542 -71.209188 -15.099911 24.991858 -18.065006 4.906382 5.119844 13.854278 -1.956520 8.332137 -1.252283 -2.662473 2.907790 -0.272987 -3.534279 -5.755819 1.346860 -0.056991 0.019230 -0.042686 8.279920 7.534607 3.657609 2.759445 4.752153 -1.454665 3.888130 -6.126700 -1.538263 0.059337 0.020614 0.034071
-61.012505 92.776230 93.626300 0.025280 -5.078285 0.148432 -0.019498 3.439704 -0.564951 -0.005913 1.527283 -0.250882 -0.005913 1.527283 -0.250882 -0.003807 1.145465 -0.188135 0.275846 19.703370 1.961733 -0.105688 0.420433 3.496067 -4.577399 -2.996260 8.952057 2.958282 -2.398316 70.128184 17.702608 23.728706 11.949572 -3.538089 5.457326 -8.831710 -3.548686 -2.286822 -4.163164 -2.345770 -10.622022 -71.201217 -15.097280 25.018427 -18.085195 4.900778 5.118809 13.854096 -1.972577 8.351477 -1.268478 -2.672426 2.843229 -0.248929 -3.552133 -5.737549 1.343245 -0.055575 0.021953 -0.044838 8.268724 7.491495 3.648144 2.739730 4.789294 -1.447764 3.871053 -6.145944 -1.540185 0.056969 0.021416 0.030825
-61.012252 92.774163 93.623436 0.079801 -5.057267 0.152806 -0.010966 3.459307 -0.563385 -0.002414 1.536248 -0.250238 -0.002414 1.536248 -0.250238 -0.001181 1.152187 -0.187661 0.270772 19.617496 1.918697 -0.103670 0.260339 3.420146 -4.589792 -3.030737 8.945197 2.949635 -2.404995 70.133257 17.745376 23.718439 11.985768 -3.534874 5.455051 -8.835272 -3.544608 -2.330868 -4.138734 -2.314845 -10.604524 -71.185606 -15.078952 25.023385 -18.090468 4.898160 5.121759 13.848890 -1.976054 8.370673 -1.281479 -2.686455 2.773500 -0.226156 -3.582399 -5.715647 1.337666 -0.054771 0.026833 -0.043964 8.254860 7.436402 3.641536 2.707111 4.840160 -1.447169 3.865836 -6.166360 -1.532211 0.055716 0.022135 0.023034
-61.010918 92.771911 93.623476 0.139793 -5.030371 0.154878 -0.004921 3.469597 -0.565346 0.000610 1.539700 -0.250763 0.000610 1.539700 -0.250763 0.001090 1.154775 -0.188062 0.261990 19.538795 1.880720 -0.109743 0.113759 3.354497 -4.597294 -3.037903 8.944183 2.944921 -2.416866 70.154425 17.769613 23.711829 12.000126 -3.529948 5.442740 -8.832708 -3.544874 -2.335817 -4.107276 -2.287686 -10.606572 -71.180114 -15.052509 25.038820 -18.080168 4.893529 5.111768 13.851752 -1.978658 8.380496 -1.293151 -2.687555 2.715827 -0.197948 -3.634724 -5.700287 1.326921 -0.053918 0.030046 -0.040871 8.196243 7.373487 3.641737 2.715951 4.905892 -1.469455 3.854616 -6.196107 -1.515022 0.053923 0.022206 0.018792
-61.012531 92.773137 93.620371 0.197726 -5.007563 0.156048 -0.005294 3.473011 -0.564374 0.001086 1.542513 -0.250846 0.001086 1.542513 -0.250846 0.001448 1.156885 -0.188126 0.254339 19.467426 1.842149 -0.113323 -0.019241 3.287292 -4.589378 -3.041185 8.951745 2.958110 -2.436144 70.157688 17.792949 23.693643 12.005721 -3.548460 5.438435 -8.819948 -3.530031 -2.345523 -4.091262 -2.288957 -10.603850 -71.161627 -15.011415 25.043434 -18.049618 4.892140 5.078648 13.864241 -1.993161 8.377418 -1.294427 -2.697717 2.684978 -0.192669 -3.661401 -5.687408 1.331230 -0.051295 0.025869 -0.042311 8.121977 7.305706 3.630212 2.731477 4.984326 -1.464631 3.857483 -6.220683 -1.517056 0.051447 0.015029 0.017089
-61.007017 92.772822 93.619233 0.255871 -4.981144 0.159908 -0.007673 3.481055 -0.567929 -0.000504 1.545924 -0.250905 -0.000504 1.545924 -0.250905 0.000257 1.159443 -0.188166 0.248498 19.401876 1.810571 -0.115597 -0.141354 3.232207 -4.581674 -3.060487 8.955223 2.969841 -2.451600 70.168353 17.821085 23.690401 12.023903 -3.558039 5.433915 -8.813223 -3.542045 -2.352285 -4.076411 -2.253850 -10.618577 -71.148080 -14.960889 25.050871 -18.018369 4.914758 5.082208 13.891877 -2.013965 8.363988 -1.311040 -2.694077 2.671220 -0.176657 -3.696551 -5.684620 1.341369 -0.050446 0.021443 -0.046496 8.103022 7.240574 3.628136 2.692734 5.050376 -1.479651 3.849495 -6.246263 -1.500866 0.049436 0.011795 0.013113
